# xmcd
#
# Track frame offsets:
#	150
#	7600
#	17728
#	25311
#	36568
#	45668
#	55217
#	63398
#	71009
#	76994
#
# Disc length: 1129 seconds
#
# Revision: 0
# Processed by: cddbd v1.5.1PL0 Copyright (c) Steve Scherf et al.
# Submitted via: dBpowerAMP V4.0
#
DISCID=7a04670a
DTITLE=Jim Reeves - Country Gentleman
DYEAR=2005
DGENRE=Country
TTITLE0=Blue Boy
TTITLE1=He'll Have To Go
TTITLE2=Bimbo
TTITLE3=Am I Losing You
TTITLE4=Billy Bayou
TTITLE5=I'm Getting Better
TTITLE6=Waiting For A Train
TTITLE7=The Oklahoma Hills
TTITLE8=Have I Told You Lately
TTITLE9=Till The End Of The World
EXTD=
EXTT0=
EXTT1=
EXTT2=
EXTT3=
EXTT4=
EXTT5=
EXTT6=
EXTT7=
EXTT8=
EXTT9=
PLAYORDER=
